<?xml version="1.0" encoding="UTF-8"?>
<svg id="Capa_1" data-name="Capa 1" xmlns="http://www.w3.org/2000/svg" viewBox="0 0 140.15 18.77">
  <defs>
    <style>
      .cls-1 {
        fill: none;
        stroke: #000;
        stroke-miterlimit: 10;
      }
    </style>
  </defs>
  <rect class="cls-1" x=".5" y=".5" width="139.15" height="17.77"/>
  <g>
    <path d="m5.23,12.72c0,1.14-.48,1.77-1.61,1.77s-1.61-.63-1.61-1.77V4.67c0-1.14.48-1.75,1.61-1.75s1.61.61,1.61,1.75v1.62h-.64v-1.62c0-.74-.29-1.14-.97-1.14s-.97.4-.97,1.14v8.06c0,.74.29,1.16.97,1.16s.97-.42.97-1.16v-1.61h.64v1.61Z"/>
    <path d="m7.74,2.91c1.13,0,1.61.61,1.61,1.75v8.06c0,1.14-.48,1.77-1.61,1.77s-1.61-.63-1.61-1.77V4.67c0-1.14.48-1.75,1.61-1.75Zm-.97,9.81c0,.74.29,1.16.97,1.16s.97-.42.97-1.16V4.67c0-.74-.29-1.14-.97-1.14s-.97.4-.97,1.14v8.06Z"/>
    <path d="m13.11,3.07h.64v11.26h-.64l-1.98-8.72.05,2.11v6.61h-.64V3.07h.64l1.98,8.72-.05-2.11V3.07Z"/>
    <path d="m16.51,14.49c-1.11,0-1.58-.63-1.58-1.77v-1.61h.64v1.61c0,.74.27,1.16.93,1.16s.93-.42.93-1.16v-1.93c0-1.17-.24-1.35-.93-1.72-1-.51-1.58-.68-1.58-2.46v-1.95c0-1.14.47-1.75,1.58-1.75s1.58.61,1.58,1.75v1.62h-.64v-1.62c0-.74-.27-1.14-.93-1.14s-.93.4-.93,1.14v1.95c0,1.17.24,1.35.93,1.72,1,.51,1.58.68,1.58,2.46v1.93c0,1.14-.47,1.77-1.58,1.77Z"/>
    <path d="m18.78,3.07h3.54v.63h-1.45v10.63h-.64V3.7h-1.45v-.63Z"/>
    <path d="m23.09,3.07h1.53c1.13,0,1.61.68,1.61,1.91v2.72c0,1.05-.34,1.69-1.11,1.88l1.42,4.74h-.66l-1.42-4.7h-.72v4.7h-.64V3.07Zm.64.61v5.34h.88c.68,0,.97-.48.97-1.32v-2.72c0-.84-.29-1.3-.97-1.3h-.88Z"/>
    <path d="m27.38,3.07h.64v9.65c0,.74.29,1.16.97,1.16s.97-.42.97-1.16V3.07h.64v9.65c0,1.14-.48,1.77-1.61,1.77s-1.61-.63-1.61-1.77V3.07Z"/>
    <path d="m34.99,12.72c0,1.14-.48,1.77-1.61,1.77s-1.61-.63-1.61-1.77V4.67c0-1.14.48-1.75,1.61-1.75s1.61.61,1.61,1.75v1.62h-.64v-1.62c0-.74-.29-1.14-.97-1.14s-.97.4-.97,1.14v8.06c0,.74.29,1.16.97,1.16s.97-.42.97-1.16v-1.61h.64v1.61Z"/>
    <path d="m35.47,3.07h3.54v.63h-1.45v10.63h-.64V3.7h-1.45v-.63Z"/>
    <path d="m41.36,2.91c1.13,0,1.61.61,1.61,1.75v8.06c0,1.14-.48,1.77-1.61,1.77s-1.61-.63-1.61-1.77V4.67c0-1.14.48-1.75,1.61-1.75Zm-.97,9.81c0,.74.29,1.16.97,1.16s.97-.42.97-1.16V4.67c0-.74-.29-1.14-.97-1.14s-.97.4-.97,1.14v8.06Z"/>
    <path d="m44.16,3.07h1.53c1.13,0,1.61.68,1.61,1.91v2.72c0,1.05-.34,1.69-1.11,1.88l1.42,4.74h-.66l-1.42-4.7h-.72v4.7h-.64V3.07Zm.64.61v5.34h.88c.68,0,.97-.48.97-1.32v-2.72c0-.84-.29-1.3-.97-1.3h-.88Z"/>
    <path d="m51.15,12.23h-2.07l-.29,2.11h-.66l1.67-11.28h.64l1.67,11.28h-.66l-.31-2.11Zm-1.98-.61h1.9l-.47-3.27-.48-3.78-.48,3.78-.47,3.27Z"/>
    <path d="m58.47,4.67v2.73c0,.64-.19,1.08-.64,1.3.56.23.8.72.8,1.45v2.41c0,1.14-.48,1.77-1.61,1.77h-1.61V3.07h1.61c1.01,0,1.45.56,1.45,1.59Zm-2.41-.98v4.71h.97c.56,0,.8-.35.8-1v-2.73c0-.64-.24-.98-.8-.98h-.97Zm0,5.32v4.71h.97c.68,0,.97-.42.97-1.16v-2.41c0-.74-.29-1.14-.97-1.14h-.97Z"/>
    <path d="m61.38,2.91c1.13,0,1.61.61,1.61,1.75v8.06c0,1.14-.48,1.77-1.61,1.77s-1.61-.63-1.61-1.77V4.67c0-1.14.48-1.75,1.61-1.75Zm-.97,9.81c0,.74.29,1.16.97,1.16s.97-.42.97-1.16V4.67c0-.74-.29-1.14-.97-1.14s-.97.4-.97,1.14v8.06Z"/>
    <path d="m65.71,14.49c-1.11,0-1.58-.63-1.58-1.77v-1.61h.64v1.61c0,.74.27,1.16.93,1.16s.93-.42.93-1.16v-1.93c0-1.17-.24-1.35-.93-1.72-1-.51-1.58-.68-1.58-2.46v-1.95c0-1.14.47-1.75,1.58-1.75s1.58.61,1.58,1.75v1.62h-.64v-1.62c0-.74-.27-1.14-.93-1.14s-.93.4-.93,1.14v1.95c0,1.17.24,1.35.93,1.72,1,.51,1.58.68,1.58,2.46v1.93c0,1.14-.47,1.77-1.58,1.77Z"/>
    <path d="m71.61,12.72c0,1.14-.48,1.77-1.61,1.77s-1.61-.63-1.61-1.77V4.67c0-1.14.48-1.75,1.61-1.75s1.61.61,1.61,1.75v1.62h-.64v-1.62c0-.74-.29-1.14-.97-1.14s-.97.4-.97,1.14v8.06c0,.74.29,1.16.97,1.16s.97-.42.97-1.16v-1.61h.64v1.61Z"/>
    <path d="m75.12,9.01h-1.93v5.32h-.64V3.07h.64v5.32h1.93V3.07h.64v11.26h-.64v-5.32Z"/>
    <path d="m79.37,4.67c0-1.14.47-1.75,1.58-1.75s1.58.61,1.58,1.75v1.62h-.64v-1.62c0-.74-.27-1.14-.93-1.14s-.93.4-.93,1.14v.34c0,2.11.23,2.62,1,3.33,0,.02.02.03.03.03.43-.24.93-.4,1.48-.58v.68c-.39.11-.71.24-.98.37.61.6.98,1.25.98,3.57,0,.93.27,1.48.93,1.48v.61c-.66,0-1.06-.32-1.25-.9-.21.58-.61.9-1.25.9-1.11,0-1.58-.63-1.58-1.77v-.32c0-2.01.42-3.04,1.14-3.67-.72-.64-1.14-1.19-1.14-3.73v-.34Zm.64,8.06c0,.74.27,1.16.93,1.16s.93-.55.93-1.48c0-1.99-.21-2.56-.88-3.22-.8.66-.98,1.64-.98,3.22v.32Z"/>
    <path d="m86.12,3.09s.01-.09.04-.12.06-.05.1-.05h2.95c.38,0,.73.09,1.07.26.34.17.63.4.88.7s.45.64.59,1.04c.14.4.22.82.22,1.27,0,.5-.08.97-.25,1.4-.17.44-.42.81-.76,1.13.34.32.6.69.76,1.13.17.43.25.89.25,1.39,0,.45-.07.87-.22,1.27-.14.4-.34.74-.59,1.04s-.54.53-.88.7c-.34.17-.69.26-1.07.26h-2.95s-.07-.02-.1-.05-.04-.08-.04-.12V3.09Zm1.24,4.87h1.86c.21,0,.4-.05.58-.14.18-.1.34-.22.48-.38.14-.16.25-.35.33-.57.08-.22.12-.45.12-.69s-.04-.47-.12-.69c-.08-.22-.19-.41-.33-.57-.14-.16-.3-.29-.48-.39-.18-.1-.38-.14-.58-.14h-1.86v3.57Zm0,5.05h1.86c.21,0,.4-.05.58-.14.18-.09.34-.22.48-.38s.25-.35.33-.57c.08-.22.12-.45.12-.7s-.04-.47-.12-.69c-.08-.22-.19-.41-.33-.57-.14-.16-.3-.29-.48-.39-.18-.1-.37-.14-.57-.14h-1.86v3.58Z"/>
    <path d="m95.22,2.91c.44,0,.84.1,1.2.3.36.2.67.53.92.99.25.46.45,1.05.59,1.79.14.73.21,1.63.21,2.7s-.07,1.99-.21,2.73c-.14.74-.34,1.33-.6,1.78-.26.45-.57.78-.93.97-.36.2-.76.3-1.19.3s-.84-.1-1.2-.3c-.36-.2-.67-.53-.93-.98-.26-.45-.46-1.05-.59-1.78-.14-.74-.21-1.64-.21-2.72s.07-1.95.21-2.69c.14-.74.33-1.33.59-1.79.25-.46.56-.79.92-1,.36-.21.76-.31,1.22-.31Zm1.11,2.18c-.26-.47-.63-.7-1.11-.7-.27,0-.52.08-.72.23-.21.15-.38.4-.53.74-.14.34-.25.79-.33,1.33-.07.55-.11,1.21-.11,2s.04,1.47.11,2.01c.08.55.18.99.33,1.33.14.34.32.58.53.73.21.15.45.23.72.23s.5-.07.71-.22c.21-.15.38-.39.53-.73.14-.34.25-.78.33-1.33.08-.55.11-1.22.11-2.02,0-.91-.05-1.66-.16-2.24-.11-.58-.24-1.03-.41-1.37Z"/>
    <path d="m103.19,6.35s-.07-.02-.1-.05-.04-.08-.04-.12c0-.25-.05-.48-.14-.7-.09-.22-.21-.41-.37-.57-.15-.16-.33-.29-.54-.38-.2-.09-.42-.14-.64-.14s-.45.05-.65.14c-.2.09-.38.22-.54.38-.15.16-.28.35-.37.57-.09.22-.14.45-.14.7,0,.64.18,1.06.53,1.25.21.12.42.22.64.31.22.09.44.17.67.24.7.21,1.32.49,1.87.84h0c.61.39.92,1.19.92,2.39,0,.45-.08.88-.23,1.27-.16.39-.37.74-.63,1.03s-.57.53-.93.7c-.35.17-.73.26-1.13.26s-.78-.09-1.13-.26c-.35-.17-.67-.4-.93-.7-.27-.3-.48-.64-.63-1.04-.15-.4-.23-.82-.23-1.27,0-.05.01-.09.04-.12s.06-.05.1-.05h.95s.07.02.1.05.04.08.04.12c0,.24.04.47.13.69.09.22.21.41.36.57.15.16.33.29.54.39.21.1.43.14.66.14s.44-.05.65-.14c.21-.1.38-.22.54-.39.15-.16.27-.35.36-.57.09-.22.14-.45.14-.69,0-.63-.18-1.04-.53-1.24-.21-.12-.42-.22-.64-.32-.22-.1-.44-.18-.67-.25-.34-.1-.66-.22-.98-.35-.32-.14-.61-.3-.89-.48h0c-.6-.37-.9-1.17-.9-2.39,0-.45.08-.87.23-1.27.15-.4.36-.74.63-1.04.27-.3.58-.53.93-.7.35-.17.73-.26,1.13-.26s.77.09,1.13.26c.35.17.66.4.93.7s.47.64.63,1.03c.16.39.23.82.23,1.27,0,.05-.01.09-.04.12s-.06.05-.1.05h-.95Z"/>
    <path d="m107.48,2.91c.64,0,1.18.22,1.62.65.44.43.77,1.09.98,1.97.01.06,0,.12-.02.16-.03.04-.07.07-.12.07h-.99s-.05-.01-.08-.03c-.03-.02-.05-.05-.06-.08-.14-.43-.32-.75-.53-.95-.21-.21-.48-.31-.81-.31-.27,0-.52.08-.72.23-.21.15-.38.4-.53.74-.14.34-.25.79-.33,1.33-.07.55-.11,1.21-.11,2s.04,1.47.11,2.01c.08.55.18.99.33,1.33.14.34.32.58.53.73.21.15.45.23.72.23.33,0,.6-.1.8-.31.21-.21.39-.53.53-.96,0-.03.03-.05.06-.07.03-.02.06-.03.08-.03h.99c.05,0,.09.02.12.07.03.04.03.1.02.16-.22.89-.55,1.55-.98,1.98-.43.43-.97.64-1.63.64-.44,0-.84-.1-1.2-.3-.36-.2-.67-.53-.93-.98-.26-.45-.46-1.05-.59-1.78-.14-.74-.21-1.64-.21-2.72s.07-1.95.21-2.69c.14-.74.33-1.33.59-1.79.25-.46.56-.79.92-1,.36-.21.76-.31,1.22-.31Z"/>
    <path d="m115.06,3.09s.01-.09.04-.12.06-.05.1-.05h.95s.07.02.1.05.04.08.04.12v11.22s-.01.09-.04.12-.06.05-.1.05h-.95s-.07-.02-.1-.05-.04-.08-.04-.12v-4.88h-3.37v4.88s-.01.09-.04.12-.06.05-.1.05h-.95s-.07-.02-.1-.05-.04-.08-.04-.12V3.09s.01-.09.04-.12.06-.05.1-.05h.95s.07.02.1.05.04.08.04.12v4.87h3.37V3.09Z"/>
    <path d="m125.01,6.17c0-.28-.05-.54-.15-.77-.1-.24-.23-.44-.4-.62-.17-.18-.36-.32-.58-.42-.22-.1-.46-.15-.7-.15s-.49.05-.71.15c-.22.1-.42.24-.58.42-.17.18-.3.39-.4.63s-.15.49-.15.77c0,.7.2,1.17.61,1.41.41.24.86.43,1.34.57.67.2,1.28.48,1.83.83.56.36.84,1.1.84,2.24,0,.43-.07.83-.22,1.2-.15.37-.35.7-.6.98s-.55.5-.88.66c-.34.16-.69.24-1.07.24s-.74-.08-1.08-.24c-.34-.16-.63-.38-.88-.67-.25-.28-.45-.61-.6-.98-.15-.37-.22-.77-.22-1.2h.95c0,.27.05.52.14.76.1.24.23.45.39.63.17.18.36.32.58.43.22.1.46.16.72.16s.48-.05.7-.16c.22-.1.41-.24.58-.42.17-.18.3-.38.4-.62.1-.24.15-.49.15-.77,0-.7-.2-1.16-.61-1.4-.21-.12-.42-.22-.64-.32-.22-.1-.45-.19-.7-.26-.34-.1-.66-.21-.96-.34-.3-.13-.59-.29-.87-.47-.55-.36-.83-1.11-.83-2.24,0-.42.07-.82.22-1.2.15-.37.35-.7.6-.98.25-.28.55-.5.88-.67.34-.16.7-.24,1.08-.24s.73.08,1.07.24c.34.16.63.38.88.66s.46.61.6.98c.15.38.22.78.22,1.2h-.95Z"/>
    <path d="m126.63,3.09h2.95c.36,0,.69.08,1.01.24.32.16.59.38.83.67.24.28.42.61.56.98.14.37.21.77.21,1.2s-.07.81-.21,1.19c-.14.37-.32.7-.56.98-.23.28-.51.5-.83.67-.32.16-.66.24-1.01.24h-2v5.05h-.95V3.09Zm.95,5.04h2c.23,0,.44-.05.64-.16.2-.1.38-.24.53-.42s.27-.38.36-.62c.09-.24.13-.49.13-.76s-.04-.52-.13-.76c-.09-.24-.21-.45-.36-.63-.15-.18-.33-.32-.53-.42-.2-.1-.42-.16-.64-.16h-2v3.92Z"/>
    <path d="m132.4,14.31l2.53-11.22h.98l2.54,11.22h-.98l-.46-2.05h-3.17l-.46,2.05h-.98Zm4.36-3.17l-1.34-5.88-1.33,5.88h2.67Z"/>
  </g>
</svg>